<?xml version="1.0" encoding="UTF-8" standalone="no"?><!-- Generator: Gravit.io --><svg xmlns="http://www.w3.org/2000/svg" xmlns:xlink="http://www.w3.org/1999/xlink" style="isolation:isolate" viewBox="0 0 508 508" width="508pt" height="508pt"><defs><clipPath id="_clipPath_QWkMSz78zoCPVWMsjoTNqMMb0pwXEqqZ"><rect width="508" height="508"/></clipPath></defs><g clip-path="url(#_clipPath_QWkMSz78zoCPVWMsjoTNqMMb0pwXEqqZ)"><circle vector-effect="non-scaling-stroke" cx="254" cy="254" r="254" fill="rgb(144,223,170)"/><path d=" M 411.6 374 L 96.4 374 C 85.6 374 76.8 365.2 76.8 354.4 L 76.8 153.6 C 76.8 142.8 85.6 134 96.4 134 L 412 134 C 422.8 134 431.6 142.8 431.6 153.6 L 431.6 354.4 C 431.6 365.2 422.8 374 411.6 374 Z " fill="rgb(255,255,255)"/><rect x="99.2" y="155.6" width="309.6" height="197.2" transform="matrix(1,0,0,1,0,0)" fill="rgb(50,74,94)"/><g><path d=" M 346.4 328.4 C 340.8 328.4 329.2 332.8 329.2 338.4 L 329.2 338.4 C 329.2 344 340.8 348.4 346.4 348.4 L 378.8 348.4 C 380.8 348.4 382.4 346.8 382.4 344.8 L 382.4 332.4 C 382.4 330.4 380.8 328.8 378.8 328.8 L 346.4 328.8 L 346.4 328.4 L 346.4 328.4 Z " fill="rgb(255,255,255)"/></g><g clip-path="url(#_clipPath_iwkTzwylTUjNYRdsrkMqasGpzVtPI1t2)"><text transform="matrix(0.937,-0.35,0.35,0.937,118.029,333.261)" style="font-family:'Over the Rainbow';font-weight:400;font-size:72px;font-style:normal;fill:#e8e8e8;stroke:none;">PCFI 161</text></g><defs><clipPath id="_clipPath_iwkTzwylTUjNYRdsrkMqasGpzVtPI1t2"><rect x="0" y="0" width="309" height="146.883" transform="matrix(0.937,-0.35,0.35,0.937,83.265,240.265)"/></clipPath></defs></g></svg>